PathFileType	4	(X/Y/Z)	D:\telocate\uwb04-Unnamed.trc
DataRate	CameraRate	NumFrames	NumMarkers	Units	OrigDataRate	OrigDataStartFrame	OrigNumFrames
100.00	100.00	     127	0	mm	100.00	3757	     10016
Frame#	Time	
		

3757	37.560	2901.84204	-1693.52246	1171.79980	
3758	37.570	2897.56714	-1694.01892	1171.50842	
3759	37.580	2892.25293	-1695.21826	1170.84106	
3760	37.590	2888.74512	-1694.60803	1171.01526	
3761	37.600	2885.05713	-1694.64893	1171.38977	
3762	37.610	2881.13257	-1694.93188	1171.29700	
3763	37.620	2877.60522	-1695.19666	1171.36243	
3764	37.630	2874.86206	-1694.46631	1171.46716	
3765	37.640	2871.90918	-1694.27014	1172.12244	
3766	37.650	2869.29346	-1694.06030	1171.91968	
3767	37.660	2866.26001	-1694.18945	1171.89612	
3768	37.670	2862.75830	-1693.86731	1172.60486	
3769	37.680	2858.60449	-1693.80762	1173.64441	
3770	37.690	2853.66870	-1693.86316	1173.98071	
3771	37.700	2851.69702	-1693.49536	1174.95813	
3772	37.710	2850.04663	-1692.54834	1175.37378	
3773	37.720	2848.20752	-1691.99585	1176.40906	
3774	37.730	2845.52393	-1691.65759	1177.10168	
3775	37.740	2842.70288	-1690.84814	1177.88354	
3776	37.750	2839.88623	-1690.17554	1178.46472	
3777	37.760	2836.32788	-1689.84277	1179.02734	
3778	37.770	2833.36816	-1688.95154	1179.06140	
3779	37.780	2828.86377	-1689.34460	1178.56787	
3780	37.790	2826.99634	-1687.86646	1179.91174	
3781	37.800	2824.58374	-1686.87720	1180.13013	
3782	37.810	2820.67432	-1686.42725	1179.90723	
3783	37.820	2817.80908	-1685.53479	1180.42493	
3784	37.830	2814.46948	-1685.36401	1179.99390	
3785	37.840	2811.65967	-1684.57422	1180.58484	
3786	37.850	2807.41797	-1684.22510	1180.03430	
3787	37.860	2805.19165	-1684.11145	1179.58496	
3788	37.870	2802.71460	-1683.70801	1179.55005	
3789	37.880	2800.51245	-1683.08276	1179.65735	
3790	37.890	2797.84326	-1682.57446	1179.30505	
3791	37.900	2795.11938	-1681.62598	1179.73499	
3792	37.910	2792.45215	-1681.33191	1179.39502	
3793	37.920	2788.29980	-1681.52905	1178.98340	
3794	37.930	2783.73022	-1681.12024	1177.89722	
3795	37.940	2778.67529	-1681.55994	1177.23291	
3796	37.950	2775.91089	-1681.32605	1176.49329	
3797	37.960	2772.88208	-1681.23474	1176.35974	
3798	37.970	2768.57764	-1681.23535	1176.14526	
3799	37.980	2765.57202	-1680.59973	1175.61060	
3800	37.990	2761.47314	-1681.32666	1174.78198	
3801	38.000	2758.57690	-1681.44922	1174.36707	
3802	38.010	2754.36865	-1681.78015	1173.46973	
3803	38.020	2750.59668	-1682.00171	1172.71899	
3804	38.030	2748.45776	-1681.79785	1172.32776	
3805	38.040	2746.47363	-1681.43872	1172.76733	
3806	38.050	2744.12671	-1681.17859	1171.97571	
3807	38.060	2741.95630	-1681.00000	1171.42493	
3808	38.070	2739.00415	-1680.91711	1171.18506	
3809	38.080	2736.48608	-1681.18677	1170.67993	
3810	38.090	2734.58838	-1681.23633	1170.86035	
3811	38.100	2733.08789	-1681.05347	1170.81384	
3812	38.110	2731.68701	-1680.88904	1170.90002	
3813	38.120	2730.19751	-1680.79028	1171.24390	
3814	38.130	2728.33154	-1680.52222	1170.88330	
3815	38.140	2726.29590	-1681.01550	1170.90674	
3816	38.150	2723.65918	-1681.14636	1170.94177	
3817	38.160	2721.17749	-1681.85425	1170.65332	
3818	38.170	2718.20801	-1682.28650	1171.02502	
3819	38.180	2714.46777	-1683.08704	1170.94592	
3820	38.190	2711.45068	-1683.95874	1170.33740	
3821	38.200	2709.81689	-1684.47217	1170.41919	
3822	38.210	2707.72046	-1684.74963	1171.31909	
3823	38.220	2706.19141	-1684.95642	1171.89417	
3824	38.230	2704.79297	-1685.12854	1172.18909	
3825	38.240	2702.87109	-1685.67041	1172.08777	
3826	38.250	2700.57983	-1686.59351	1172.21008	
3827	38.260	2697.86304	-1687.08777	1172.73438	
3828	38.270	2695.83008	-1687.56653	1172.61621	
3829	38.280	2692.50391	-1688.50818	1173.13403	
3830	38.290	2690.98584	-1688.94421	1173.05994	
3831	38.300	2688.66455	-1689.76208	1173.32471	
3832	38.310	2688.59619	-1690.15222	1173.31909	
3833	38.320	2684.84814	-1691.48950	1173.81494	
3834	38.330	2682.36255	-1692.34924	1174.11597	
3835	38.340	2680.09668	-1693.29028	1174.14233	
3836	38.350	2678.12915	-1694.01904	1174.53992	
3837	38.360	2675.99146	-1694.93689	1174.92383	
3838	38.370	2674.44189	-1695.85486	1174.97607	
3839	38.380	2672.72266	-1696.67517	1175.69360	
3840	38.390	2671.30005	-1697.34473	1176.17566	
3841	38.400	2669.64966	-1698.59985	1176.94080	
3842	38.410	2668.59058	-1699.20203	1177.55444	
3843	38.420	2667.41772	-1699.78625	1178.13281	
3844	38.430	2665.91724	-1700.69507	1179.00171	
3845	38.440	2664.05420	-1701.33984	1179.84216	
3846	38.450	2661.90674	-1702.10803	1180.31238	
3847	38.460	2658.65088	-1703.32520	1180.81250	
3848	38.470	2655.04077	-1704.65796	1180.96204	
3849	38.480	2649.93774	-1706.36707	1181.05237	
3850	38.490	2647.77979	-1707.30176	1181.47717	
3851	38.500	2644.86475	-1708.27576	1181.60120	
3852	38.510	2642.26978	-1708.14575	1182.33765	
3853	38.520	2639.32788	-1709.18555	1182.58289	
3854	38.530	2636.25903	-1710.09241	1182.44202	
3855	38.540	2632.20459	-1711.30469	1182.82886	
3856	38.550	2629.10913	-1711.73840	1182.58972	
3857	38.560	2625.69580	-1712.86133	1182.38098	
3858	38.570	2622.31494	-1713.25208	1182.74072	
3859	38.580	2618.70801	-1714.18738	1182.70789	
3860	38.590	2615.03442	-1714.78577	1182.45471	
3861	38.600	2610.45435	-1715.71228	1181.89355	
3862	38.610	2608.02319	-1715.93286	1182.32336	
3863	38.620	2605.27979	-1716.55688	1182.06604	
3864	38.630	2602.29370	-1717.60571	1182.38342	
3865	38.640	2599.84839	-1718.16919	1182.36902	
3866	38.650	2595.68115	-1718.46021	1182.00867	
3867	38.660	2590.46265	-1719.59009	1181.89905	
3868	38.670	2585.49365	-1720.60107	1181.63513	
3869	38.680	2582.44507	-1721.18762	1181.55322	
3870	38.690	2579.04272	-1721.77209	1181.85413	
3871	38.700	2575.43481	-1722.81995	1181.54810	
3872	38.710	2572.70483	-1722.91077	1181.99744	
3873	38.720	2569.86011	-1723.23535	1182.22827	
3874	38.730	2566.96851	-1724.07141	1182.61230	
3875	38.740	2564.65991	-1724.30054	1183.23413	
3876	38.750	2562.94604	-1724.66589	1183.95483	
3877	38.760	2562.68359	-1724.22449	1184.61218	
3878	38.770	2560.78076	-1724.40149	1185.23108	
3879	38.780	2557.32690	-1725.20837	1185.90076	
3880	38.790	2555.33472	-1725.52820	1186.58936	
3881	38.800	2552.92627	-1725.48730	1186.36365	
3882	38.810	2550.74756	-1725.36914	1187.25354	
3883	38.820	2549.06250	-1724.88098	1187.72485	
